<svg id="Layer_1" data-name="Layer 1" xmlns="http://www.w3.org/2000/svg" viewBox="0 0 1772.8 592.35"><defs><style>.cls-1{fill:#fff;}</style></defs><path class="cls-1" d="M302.39,48.9h-1c-2.87,0-5.73.09-8.56.24C173.4,54.33,78.2,152.75,78.2,273.42,78.2,397.31,178.54,497.76,302.39,498v-137a156,156,0,0,0,0-312Zm0,246.77v65.27a107,107,0,0,1-4.57-213.81c1.35-.07,2.71-.11,4.07-.11h.5a74.32,74.32,0,0,1,0,148.64Z"/><path class="cls-1" d="M576.62,410.91H537.38v89.87H490.44V266.72h86.18c56.33,0,84.5,31.86,84.5,72.43C661.12,374.69,637,410.91,576.62,410.91Zm-2-37.89c26.49,0,38.22-13.08,38.22-33.87,0-21.46-11.73-34.2-38.22-34.2H537.38V373Z"/><path class="cls-1" d="M685.93,252.64h47v85.5c12.07-15.76,32.86-25.82,57.68-25.82,41.91,0,72.43,28.17,72.43,79.48v109H816V398.17c0-29.85-16.43-45.94-41.25-45.94-25.48,0-41.91,16.09-41.91,45.94V500.78h-47Z"/><path class="cls-1" d="M980.35,503.8c-54,0-93.22-37.56-93.22-95.91,0-58.68,38.23-95.9,93.22-95.9,53.66,0,91.55,36.55,91.55,91.88a110.49,110.49,0,0,1-1.34,18.11H934.75c2.35,27.49,21.12,42.92,44.6,42.92,20.12,0,31.18-10.06,37.22-22.47h50.63C1057.14,476.63,1026.29,503.8,980.35,503.8ZM935.08,390.45h88.2c-.67-24.47-20.12-39.9-44.27-39.9C956.55,350.55,938.77,365,935.08,390.45Z"/><path class="cls-1" d="M1178.87,503.8c-54,0-93.22-37.56-93.22-95.91,0-58.68,38.22-95.9,93.22-95.9,53.65,0,91.54,36.55,91.54,91.88a109.4,109.4,0,0,1-1.34,18.11H1133.26c2.35,27.49,21.13,42.92,44.6,42.92,20.12,0,31.19-10.06,37.22-22.47h50.64C1255.66,476.63,1224.81,503.8,1178.87,503.8ZM1133.6,390.45h88.19c-.67-24.47-20.12-39.9-44.26-39.9C1155.06,350.55,1137.29,365,1133.6,390.45Z"/><path class="cls-1" d="M1404.54,312c47.62,0,84.84,37.22,84.84,95.23s-37.22,96.58-84.84,96.58c-29.17,0-50-13.42-61.36-29.51v26.49h-47V252.64h47v89.53C1354.58,325.07,1376.38,312,1404.54,312Zm-12.4,41.24c-25.15,0-49,19.45-49,54.66s23.81,54.66,49,54.66c25.48,0,49.29-20.12,49.29-55.33S1417.62,353.23,1392.14,353.23Z"/><path class="cls-1" d="M1597.69,503.8c-53.65,0-94.22-37.56-94.22-95.91,0-58.68,41.91-95.9,95.57-95.9s95.56,37.22,95.56,95.9C1694.6,466.24,1651.68,503.8,1597.69,503.8Zm0-40.91c24.82,0,48.63-18.11,48.63-55,0-37.22-23.14-55-48-55s-47.28,17.77-47.28,55C1551.08,444.78,1572.55,462.89,1597.69,462.89Z"/></svg>